<?xml version="1.0" standalone="no"?><!DOCTYPE svg PUBLIC "-//W3C//DTD SVG 1.1//EN" "http://www.w3.org/Graphics/SVG/1.1/DTD/svg11.dtd"><svg t="1756764684692" class="icon" viewBox="0 0 1024 1024" version="1.1" xmlns="http://www.w3.org/2000/svg" p-id="14179" xmlns:xlink="http://www.w3.org/1999/xlink" width="200" height="200"><path d="M890.88 151.962H121.549c-21.094 0-38.298 17.92-38.298 39.936v441.549c0 21.914 17.203 39.936 38.298 39.936h328.909v113.254H272.282c-10.445 0-18.944 8.499-18.944 18.944 0 10.445 8.499 18.944 18.944 18.944h397.824c-8.294-11.776-15.462-24.474-21.197-37.786h-86.938V673.382h71.475c6.042-44.851 26.112-85.197 55.706-116.634H150.733c-11.366 0-20.685-10.854-20.685-24.166V220.16c0-2.253 0.307-4.403 0.922-6.451 2.662-8.704 10.445-15.053 19.661-15.053h710.861c9.216 0 17.101 6.349 19.661 15.053 0.614 2.048 0.922 4.198 0.922 6.451v272.896c16.384 2.97 32.051 7.782 46.797 14.336V191.898c0.205-21.914-16.998-39.936-37.99-39.936zM506.164 585.318c14.848 0 26.931 12.083 26.931 26.931s-12.083 26.931-26.931 26.931-26.931-12.083-26.931-26.931 12.083-26.931 26.931-26.931z m337.817-52.838c-41.062 0-78.643 14.541-108.032 38.81a168.804 168.804 0 0 0-52.941 77.107c-5.632 16.896-8.704 35.021-8.704 53.862 0 93.798 75.981 169.779 169.779 169.779s169.677-76.083 169.677-169.779c0-93.798-75.981-169.779-169.779-169.779z m99.533 105.984l-81.715 81.715c-7.782 7.782-20.582 7.782-28.365 0l-59.494-59.494c-7.782-7.782-7.782-20.582 0-28.365 7.782-7.782 20.582-7.782 28.365 0l45.363 45.363 67.482-67.482c7.782-7.782 20.582-7.782 28.365 0 7.782 7.68 7.782 20.48 0 28.262z" fill="#333333" p-id="14180"></path></svg>