<?xml version="1.0" standalone="no"?><!DOCTYPE svg PUBLIC "-//W3C//DTD SVG 1.1//EN" "http://www.w3.org/Graphics/SVG/1.1/DTD/svg11.dtd"><svg t="1756764695629" class="icon" viewBox="0 0 1024 1024" version="1.1" xmlns="http://www.w3.org/2000/svg" p-id="15402" xmlns:xlink="http://www.w3.org/1999/xlink" width="200" height="200"><path d="M0 0h1024v1024H0z" fill="#FFFFFF" p-id="15403"></path><path d="M96 352h32-32z m0 448H64h32z m704 128v-32 32zM224 928v32-32z m704-576h-32 32z m0 448h32-32zM800 224V192v32zM224 224v32-32z m352-128V64v32z m-128 0v32-32zM64 352v448h64V352H64z m736 544H224v64h576v-64z m96-544v448h64V352h-64z m-96-160H224v64h576V192z m160 160a160 160 0 0 0-160-160v64a96 96 0 0 1 96 96h64zM128 352a96 96 0 0 1 96-96V192a160 160 0 0 0-160 160h64zM64 800a160 160 0 0 0 160 160v-64a96 96 0 0 1-96-96H64z m736 160a160 160 0 0 0 160-160h-64a96 96 0 0 1-96 96v64zM416 512H96v64h320v-64z m512 0H608v64h320v-64zM576 64h-128v64h128V64z m160 160a160 160 0 0 0-160-160v64a96 96 0 0 1 96 96h64zM352 224a96 96 0 0 1 96-96V64a160 160 0 0 0-160 160h64z m224 352a64 64 0 0 1-64 64v64a128 128 0 0 0 128-128h-64z m-64 64a64 64 0 0 1-64-64h-64a128 128 0 0 0 128 128v-64z m-64-64a64 64 0 0 1 64-64v-64a128 128 0 0 0-128 128h64z m64-64a64 64 0 0 1 64 64h64a128 128 0 0 0-128-128v64z" fill="#000000" p-id="15404"></path></svg>