<?xml version="1.0" standalone="no"?><!DOCTYPE svg PUBLIC "-//W3C//DTD SVG 1.1//EN" "http://www.w3.org/Graphics/SVG/1.1/DTD/svg11.dtd"><svg t="1756767529503" class="icon" viewBox="0 0 1024 1024" version="1.1" xmlns="http://www.w3.org/2000/svg" p-id="21190" xmlns:xlink="http://www.w3.org/1999/xlink" width="200" height="200"><path d="M810.666667 128H213.333333a85.333333 85.333333 0 0 0-85.333333 85.333333v597.333334a85.333333 85.333333 0 0 0 85.333333 85.333333h597.333334a85.333333 85.333333 0 0 0 85.333333-85.333333V213.333333a85.333333 85.333333 0 0 0-85.333333-85.333333z m-42.666667 448a21.333333 21.333333 0 0 1-21.333333 21.333333H597.333333v149.333334a21.333333 21.333333 0 0 1-21.333333 21.333333h-128a21.333333 21.333333 0 0 1-21.333333-21.333333V597.333333H277.333333a21.333333 21.333333 0 0 1-21.333333-21.333333v-128a21.333333 21.333333 0 0 1 21.333333-21.333333H426.666667V277.333333a21.333333 21.333333 0 0 1 21.333333-21.333333h128a21.333333 21.333333 0 0 1 21.333333 21.333333V426.666667h149.333334a21.333333 21.333333 0 0 1 21.333333 21.333333z" p-id="21191"></path></svg>