<?xml version="1.0" standalone="no"?><!DOCTYPE svg PUBLIC "-//W3C//DTD SVG 1.1//EN" "http://www.w3.org/Graphics/SVG/1.1/DTD/svg11.dtd"><svg t="1756769092794" class="icon" viewBox="0 0 1024 1024" version="1.1" xmlns="http://www.w3.org/2000/svg" p-id="28063" xmlns:xlink="http://www.w3.org/1999/xlink" width="200" height="200"><path d="M927.701333 526.122667l-384-426.666667c-16.170667-18.005333-47.232-18.005333-63.402666 0l-384 426.666667a42.581333 42.581333 0 0 0-7.253334 45.909333c6.826667 15.402667 22.101333 25.301333 38.954667 25.301333h85.333333v298.666667a42.666667 42.666667 0 0 0 42.666667 42.666667h512a42.666667 42.666667 0 0 0 42.666667-42.666667v-298.666667h85.333333a42.581333 42.581333 0 1 0 31.701333-71.210666zM682.666667 640h-128v128h-85.333334v-128H341.333333v-85.333333h128v-128h85.333334v128h128v85.333333z" p-id="28064"></path></svg>