<?xml version="1.0" standalone="no"?><!DOCTYPE svg PUBLIC "-//W3C//DTD SVG 1.1//EN" "http://www.w3.org/Graphics/SVG/1.1/DTD/svg11.dtd"><svg t="1756769149396" class="icon" viewBox="0 0 1024 1024" version="1.1" xmlns="http://www.w3.org/2000/svg" p-id="33715" xmlns:xlink="http://www.w3.org/1999/xlink" width="200" height="200"><path d="M47.266 511.515a54.973 54.973 0 0 0 38.642 61.979l292.81 86.124 86.232 292.918a55.036 55.036 0 0 0 37.187 37.187l6.252 1.455a54.973 54.973 0 0 0 61.979-38.642l86.07-292.864L949.41 573.44a54.973 54.973 0 0 0 37.187-37.187l1.455-6.198a54.973 54.973 0 0 0-38.642-61.98l-292.972-86.177-86.124-292.864a54.973 54.973 0 0 0-37.187-37.187l-6.252-1.455a54.973 54.973 0 0 0-61.925 38.642l-86.178 292.864L85.908 468.13a54.973 54.973 0 0 0-37.187 37.187l-1.455 6.198z m470.34-296.044l60.954 207.172 2.371 6.52a55.171 55.171 0 0 0 34.816 30.72l207.172 60.902-207.172 60.9-6.467 2.426a54.973 54.973 0 0 0-30.72 34.816L517.605 826.1l-60.901-207.172-2.371-6.521a54.973 54.973 0 0 0-34.816-30.72L212.29 520.785l207.226-60.901a54.973 54.973 0 0 0 37.187-37.188l60.901-207.225z" fill="#f4ea2a" p-id="33716"></path></svg>