<?xml version="1.0" standalone="no"?><!DOCTYPE svg PUBLIC "-//W3C//DTD SVG 1.1//EN" "http://www.w3.org/Graphics/SVG/1.1/DTD/svg11.dtd"><svg t="1756769076385" class="icon" viewBox="0 0 1024 1024" version="1.1" xmlns="http://www.w3.org/2000/svg" p-id="26874" xmlns:xlink="http://www.w3.org/1999/xlink" width="200" height="200"><path d="M608 352H416c-52.8 0-96-43.2-96-96v-96c0-52.8 43.2-96 96-96h192c52.8 0 96 43.2 96 96v96c0 52.8-43.2 96-96 96zM352 960H160c-52.8 0-96-43.2-96-96v-96c0-52.8 43.2-96 96-96h192c52.8 0 96 43.2 96 96v96c0 52.8-43.2 96-96 96zM864 960H672c-52.8 0-96-43.2-96-96v-96c0-52.8 43.2-96 96-96h192c52.8 0 96 43.2 96 96v96c0 52.8-43.2 96-96 96zM768 480H256c-17.6 0-32 14.4-32 32s14.4 32 32 32h512c17.6 0 32-14.4 32-32s-14.4-32-32-32z" p-id="26875"></path><path d="M512 320c-17.6 0-32 14.4-32 32v128c0 17.6 14.4 32 32 32s32-14.4 32-32V352c0-17.6-14.4-32-32-32zM256 480c-17.6 0-32 14.4-32 32v160c0 17.6 14.4 32 32 32s32-14.4 32-32V512c0-17.6-14.4-32-32-32zM768 480c-17.6 0-32 14.4-32 32v160c0 17.6 14.4 32 32 32s32-14.4 32-32V512c0-17.6-14.4-32-32-32z" p-id="26876"></path></svg>