<?xml version="1.0" standalone="no"?><!DOCTYPE svg PUBLIC "-//W3C//DTD SVG 1.1//EN" "http://www.w3.org/Graphics/SVG/1.1/DTD/svg11.dtd"><svg t="1756769115331" class="icon" viewBox="0 0 1024 1024" version="1.1" xmlns="http://www.w3.org/2000/svg" p-id="30757" xmlns:xlink="http://www.w3.org/1999/xlink" width="200" height="200"><path d="M884.363636 546.443636A137.774545 137.774545 0 1 0 712.145455 679.563636v39.098182a172.683636 172.683636 0 1 1-345.367273 0A304.407273 304.407273 0 0 1 470.109091 502.690909H465.454545a240.174545 240.174545 0 0 0 108.916364-197.352727V166.632727A103.330909 103.330909 0 0 0 471.04 63.301818H418.909091a34.443636 34.443636 0 0 0 0 68.887273h51.2a34.443636 34.443636 0 0 1 34.443636 34.443636v138.705455a172.218182 172.218182 0 0 1-171.287272 172.218182v25.134545-25.134545a172.218182 172.218182 0 0 1-173.149091-171.287273v-139.636364a34.443636 34.443636 0 0 1 34.443636-34.443636h48.407273a34.443636 34.443636 0 0 0 0-68.887273h-48.407273A103.330909 103.330909 0 0 0 93.090909 166.632727v138.705455A240.174545 240.174545 0 0 0 195.490909 502.690909a304.407273 304.407273 0 0 1 102.4 215.970909 241.570909 241.570909 0 1 0 483.141818 0V679.563636A137.774545 137.774545 0 0 0 884.363636 546.443636zM744.727273 615.330909a68.887273 68.887273 0 1 1 68.887272-68.887273 68.887273 68.887273 0 0 1-68.887272 68.887273z" p-id="30758"></path></svg>